<?xml version="1.0" encoding="iso-8859-1"?>
<!-- Generator: Adobe Illustrator 19.0.0, SVG Export Plug-In . SVG Version: 6.00 Build 0)  -->
<svg version="1.1" id="Capa_1" xmlns="http://www.w3.org/2000/svg" xmlns:xlink="http://www.w3.org/1999/xlink" x="0px" y="0px"
	 viewBox="0 0 512 512" style="enable-background:new 0 0 512 512;" xml:space="preserve">
<path style="fill:#73553A;" d="M343.599,80.6L256,124.999L168.401,80.6C195.7,35.9,246.099,3.3,248.2,2.1
	c2.4-1.501,5.099-2.1,7.8-2.1c2.701,0,5.4,0.599,7.8,2.1C265.901,3.3,316.3,35.9,343.599,80.6z"/>
<path style="fill:#59422D;" d="M343.599,80.6L256,124.999V0c2.701,0,5.4,0.599,7.8,2.1C265.901,3.3,316.3,35.9,343.599,80.6z"/>
<path style="fill:#896748;" d="M155.219,63.494c-5.669-1.934-12.114-0.249-16.143,4.336c-1.992,2.271-48.809,56.484-57.598,118.066
	l103.726,29.766l75.205-83.276C221.503,86.536,157.914,64.417,155.219,63.494z"/>
<g>
	<path style="fill:#73553A;" d="M372.953,67.815c-4.028-4.585-10.459-6.299-16.143-4.321c-2.695,0.923-66.299,23.042-105.205,68.921
		l75.234,83.262l103.711-29.795C421.762,124.3,374.945,70.101,372.953,67.815z"/>
	<path style="fill:#73553A;" d="M347.5,216.799L256,275.6l-91.5-58.801c26.1-53.699,80.7-90.599,83.099-92.401
		C250,122.599,253.001,122,256,122s6,0.599,8.401,2.399C266.8,126.2,321.4,163.1,347.5,216.799z"/>
</g>
<path style="fill:#59422D;" d="M347.5,216.799L256,275.6V122c2.999,0,6,0.599,8.401,2.399C266.8,126.2,321.4,163.1,347.5,216.799z"
	/>
<path style="fill:#73553A;" d="M224.799,256.209c-40.386-69.976-138.955-86.074-143.13-86.733
	c-6.929-1.04-13.755,2.842-16.304,9.419c-0.923,2.373-22.397,58.887-13.608,116.777l127.69,26.074l50.361-55.957
	C228.285,262.566,226.615,259.373,224.799,256.209z"/>
<path style="fill:#59422D;" d="M446.635,178.895c-2.549-6.577-9.346-10.459-16.304-9.419c-4.175,0.659-102.744,16.758-143.13,86.748
	c-1.816,3.149-3.486,6.343-5.01,9.565l80.361,55.986l97.69-26.104C469.032,237.781,447.558,181.268,446.635,178.895z"/>
<path style="fill:#A07854;" d="M351.7,320.9L256,379.999L160.3,320.9c23.699-52.8,85.499-90.3,87.9-91.8
	c2.401-1.501,5.099-2.1,7.8-2.1s5.4,0.599,7.8,2.1C266.201,230.6,328.001,268.1,351.7,320.9z"/>
<polygon points="256.007,361.995 255.993,361.995 256,362 "/>
<g>
	<path style="fill:#896748;" d="M351.7,320.9L256,379.999V227c2.701,0,5.4,0.599,7.8,2.1C266.201,230.6,328.001,268.1,351.7,320.9z"
		/>
	<path style="fill:#896748;" d="M48.241,275.486c-4.058-0.527-8.247,0.688-11.426,3.325c-3.193,2.622-5.156,6.46-5.42,10.591
		C31.132,293.577,31,297.781,31,302c0,80.759,49.162,150.899,120.958,186.022l104.035-126.028
		C194.98,317.245,123.413,284.964,48.241,275.486z"/>
</g>
<g>
	<path style="fill:#73553A;" d="M480.604,289.402c-0.264-4.131-2.227-7.969-5.42-10.591c-3.179-2.637-7.295-3.853-11.426-3.325
		c-75.157,9.478-146.739,41.759-207.751,86.508l104.026,126.033C431.834,452.906,481,382.762,481,302
		C481,297.781,480.868,293.577,480.604,289.402z"/>
	<path style="fill:#73553A;" d="M360.099,488c-9.3,4.499-19.199,8.399-29.399,11.699C307.301,507.499,282.1,512,256,512
		c-26.4,0-51.301-4.501-75-12.301c-9.901-3.3-19.799-7.2-29.099-11.699c0.298-2.401,0-4.501,0.599-6.901
		c11.7-66,92.401-114.899,95.7-116.999c2.401-1.501,5.099-2.1,7.8-2.1c2.701,0,5.4,0.599,7.8,2.1c3.3,2.1,82.2,49.799,95.4,114.6
		C359.801,481.7,359.801,484.999,360.099,488z"/>
</g>
<path style="fill:#59422D;" d="M360.099,488c-9.3,4.499-19.199,8.399-29.399,11.699C307.301,507.499,282.1,512,256,512V362
	c2.701,0,5.4,0.599,7.8,2.1c3.3,2.1,82.2,49.799,95.4,114.6C359.801,481.7,359.801,484.999,360.099,488z"/>
<g>
</g>
<g>
</g>
<g>
</g>
<g>
</g>
<g>
</g>
<g>
</g>
<g>
</g>
<g>
</g>
<g>
</g>
<g>
</g>
<g>
</g>
<g>
</g>
<g>
</g>
<g>
</g>
<g>
</g>
</svg>
