<svg id="Capa_1" enable-background="new 0 0 496.998 496.998" height="512" viewBox="0 0 496.998 496.998" width="512" xmlns="http://www.w3.org/2000/svg"><g><path d="m306.443 459.361h116.797c10.299 0 18.647 8.349 18.647 18.647v.342c0 10.299-8.349 18.647-18.647 18.647h-116.797l-10.423-18.817z" fill="#978ecb"/><path d="m423.24 459.361h-23.326c10.299 0 18.647 8.349 18.647 18.647v.342c0 10.299-8.349 18.647-18.647 18.647h23.326c10.299 0 18.647-8.349 18.647-18.647v-.342c0-10.298-8.348-18.647-18.647-18.647z" fill="#8379c1"/><path d="m306.443 496.998h-36.547l-9.915-71.311 9.915-71.311h.332c20.001 0 36.215 16.214 36.215 36.215z" fill="#978ecb"/><path d="m270.228 354.376h-.332l-.79 5.681c9.958 6.453 17.342 17.785 17.342 30.534v106.407h19.995v-106.407c0-20.001-16.214-36.215-36.215-36.215z" fill="#8379c1"/><path d="m65.676 496.998h24.931l12.45-71.311-12.45-71.311h-.332c-20.001 0-36.215 16.214-36.215 36.215v94.791c0 6.415 5.201 11.616 11.616 11.616z" fill="#978ecb"/><path d="m90.275 354.376c-7.251 0-13.999 2.139-19.663 5.81v136.813h19.995l12.45-71.311-12.45-71.311h-.332z" fill="#8379c1"/><path d="m448.476 267.598c-5.845-13.383-20.908-20.128-34.784-15.574l-20.901 6.858c-1.93.633-4.013.633-5.943 0l-20.901-6.858c-13.876-4.553-28.939 2.191-34.784 15.574-4.814 11.023-2.37 23.871 6.155 32.356l45.778 45.562c3.719 3.701 9.729 3.701 13.447 0l45.778-45.562c8.525-8.485 10.969-21.333 6.155-32.356z" fill="#fd4755"/><path d="m448.476 267.598c-5.845-13.383-20.908-20.128-34.784-15.574l-3.059 1.004c6.29 2.777 11.573 7.831 14.517 14.571 4.814 11.023 2.37 23.871-6.155 32.356l-36.361 36.612c-1.62 1.613-3.676 2.521-5.787 2.729l6.25 6.22c3.719 3.701 9.729 3.701 13.447 0l45.778-45.562c8.524-8.485 10.968-21.333 6.154-32.356z" fill="#fb2b3a"/><path d="m269.895 496.998h-59.797l-29.847-9.987-29.847 9.987h-59.797v-180.308c0-25.844 20.951-46.795 46.795-46.795l42.849-9.633 42.849 9.633c25.844 0 46.795 20.951 46.795 46.795z" fill="#c2bce0"/><g fill="#aca6d6"><path d="m223.101 269.895-13.691-3.078-9.635 3.078c25.844 0 46.795 20.951 46.795 46.795v180.308h23.326v-180.308c-.001-25.844-20.951-46.795-46.795-46.795z"/><path d="m157.904 390.03c-4.142 0-7.5-3.358-7.5-7.5v-39.888c0-4.142 3.358-7.5 7.5-7.5s7.5 3.358 7.5 7.5v39.888c0 4.142-3.358 7.5-7.5 7.5z"/><path d="m202.598 390.03c-4.142 0-7.5-3.358-7.5-7.5v-39.888c0-4.142 3.358-7.5 7.5-7.5s7.5 3.358 7.5 7.5v39.888c0 4.142-3.358 7.5-7.5 7.5z"/><path d="m157.904 477.352c-4.142 0-7.5-3.358-7.5-7.5 0-9.95-19.566-13.541-19.764-13.572-4.083-.656-6.873-4.494-6.228-8.578.646-4.083 4.467-6.877 8.551-6.241 12.049 1.874 32.44 9.962 32.44 28.392.001 4.141-3.357 7.499-7.499 7.499z"/><path d="m202.598 477.352c-4.142 0-7.5-3.358-7.5-7.5 0-18.429 20.391-26.518 32.44-28.392 4.09-.635 7.927 2.166 8.563 6.258.635 4.087-2.157 7.916-6.241 8.561-.214.035-19.763 3.627-19.763 13.572.001 4.143-3.357 7.501-7.499 7.501z"/></g><path d="m458.957 151.943h-8.704v-8.704c0-4.142-3.358-7.5-7.5-7.5s-7.5 3.358-7.5 7.5v8.704h-8.704c-4.142 0-7.5 3.358-7.5 7.5s3.358 7.5 7.5 7.5h8.704v8.704c0 4.142 3.358 7.5 7.5 7.5s7.5-3.358 7.5-7.5v-8.704h8.704c4.142 0 7.5-3.358 7.5-7.5s-3.358-7.5-7.5-7.5z" fill="#fd4755"/><circle cx="397.297" cy="212.144" fill="#fb2b3a" r="7.613"/><path d="m210.098 496.998h-59.694v-114.468c0-10.299 8.349-18.648 18.648-18.648h22.399c10.299 0 18.648 8.349 18.648 18.648v114.468z" fill="#f3f1f4"/><path d="m329.259 186.358-14.12 30.73c-14.8 32.18-46.98 52.81-82.41 52.81h-104.96c-35.42 0-67.61-20.63-82.4-52.81l-14.13-30.73c-2.3-5.02 1.36-10.74 6.89-10.74h15.39c3.42 0 6.27-2.61 6.57-6.02l9.03-101.75c.35-3.95.53-7.9.53-11.86v-49.41c0-6.05 7.5-8.88 11.5-4.34l48.27 54.85c2.71 3.08 6.61 4.84 10.71 4.84h80.24c4.1 0 8-1.76 10.71-4.84l36.45-41.42 11.82-13.43c4.01-4.54 11.51-1.71 11.51 4.34v49.41c0 3.96.17 7.91.52 11.86l9.04 101.75c.3 3.41 3.15 6.02 6.56 6.02h15.39c5.53 0 9.2 5.72 6.89 10.74z" fill="#c2bce0"/><path d="m329.259 186.358-14.12 30.73c-14.8 32.18-46.98 52.81-82.41 52.81h-23.32c35.42 0 67.6-20.63 82.4-52.81l14.12-30.73c2.31-5.02-1.36-10.74-6.88-10.74h-15.488c-3.363 0-6.17-2.569-6.467-5.919l-9.035-101.851c-.35-3.95-.53-7.9-.53-11.86v-40.32l11.82-13.43c4.01-4.54 11.51-1.71 11.51 4.34v49.41c0 3.96.17 7.91.52 11.86l9.04 101.75c.3 3.41 3.15 6.02 6.56 6.02h15.39c5.53 0 9.2 5.72 6.89 10.74z" fill="#aca6d6"/><path d="m140.129 61.928h-22.821c-4.418 0-8.622-1.901-11.54-5.217l-36.119-41.043v-9.09c0-6.05 7.5-8.88 11.5-4.34l48.27 54.85c2.71 3.08 6.61 4.84 10.71 4.84z" fill="#aca6d6"/><path d="m180.251 214.879c-4.142 0-7.5-3.358-7.5-7.5v-48.479c0-4.142 3.358-7.5 7.5-7.5s7.5 3.358 7.5 7.5v48.479c0 4.142-3.358 7.5-7.5 7.5z" fill="#aca6d6"/><path d="m120.206 145.493c-4.142 0-7.5-3.358-7.5-7.5 0-3.335-2.713-6.049-6.049-6.049s-6.049 2.713-6.049 6.049c0 4.142-3.358 7.5-7.5 7.5s-7.5-3.358-7.5-7.5c0-11.606 9.442-21.049 21.049-21.049s21.049 9.442 21.049 21.049c0 4.142-3.358 7.5-7.5 7.5z" fill="#8379c1"/><path d="m267.394 145.493c-4.142 0-7.5-3.358-7.5-7.5 0-3.335-2.713-6.049-6.048-6.049s-6.049 2.713-6.049 6.049c0 4.142-3.358 7.5-7.5 7.5s-7.5-3.358-7.5-7.5c0-11.606 9.442-21.049 21.049-21.049 11.606 0 21.048 9.442 21.048 21.049 0 4.142-3.358 7.5-7.5 7.5z" fill="#8379c1"/><path d="m83.525 223.453c-2.673 0-5.26-1.433-6.614-3.953-1.96-3.649-.59-8.196 3.059-10.156l14.177-7.613c3.648-1.96 8.196-.59 10.156 3.059s.59 8.196-3.059 10.156l-14.177 7.613c-1.129.606-2.344.894-3.542.894z" fill="#978ecb"/><path d="m278.476 223.453c-1.198 0-2.413-.288-3.542-.894l-14.176-7.613c-3.649-1.96-5.019-6.507-3.059-10.156 1.959-3.65 6.508-5.019 10.156-3.059l14.176 7.613c3.649 1.96 5.019 6.507 3.059 10.156-1.354 2.52-3.941 3.953-6.614 3.953z" fill="#978ecb"/><path d="m173.628 170.406-11.645-15.251c-4.19-5.488-.277-13.4 6.628-13.4h23.28c6.905 0 10.819 7.912 6.628 13.4l-11.645 15.251c-3.334 4.368-9.911 4.368-13.246 0z" fill="#fd4755"/></g></svg>