<svg id="Bold" enable-background="new 0 0 32 32" height="512" viewBox="0 0 32 32" width="512" xmlns="http://www.w3.org/2000/svg"><path d="m26 32h-20c-3.314 0-6-2.686-6-6v-20c0-3.314 2.686-6 6-6h20c3.314 0 6 2.686 6 6v20c0 3.314-2.686 6-6 6z" fill="#e3f8fa"/><path d="m9.024 12.001c2.329-1.336 4.658-2.67 6.988-4.001 2.329 1.332 4.661 2.66 6.987 3.997-.003 2.671-.004 5.343.001 8.014-2.325 1.339-4.66 2.658-6.989 3.989-2.335-1.342-4.683-2.663-7.011-4.017.929-.527 1.856-1.055 2.787-1.579 1.408.808 2.819 1.611 4.224 2.425 1.401-.82 2.821-1.607 4.217-2.435-.012-1.069-.001-2.137-.006-3.206-1.402.81-2.807 1.619-4.211 2.426-2.331-1.321-4.655-2.655-6.986-3.978 0-.545.001-1.09-.001-1.635zm4.138.802c.945.552 1.901 1.091 2.849 1.639.954-.545 1.908-1.092 2.864-1.636-.956-.541-1.909-1.091-2.864-1.634-.951.543-1.897 1.093-2.849 1.631z" fill="#26c6da"/></svg>